<?xml version="1.0" encoding="UTF-8"?>
<svg  xmlns="http://www.w3.org/2000/svg" viewBox="0 0 88.08 53.07">
  <defs>
    <style>
      .cls-1 {
        stroke-width: 7.88px;
      }

      .cls-1, .cls-2 {
        fill: none;
        stroke: #62e595;
        stroke-linecap: round;
      }

      .cls-2 {
        stroke-width: 8.29px;
      }

      .cls-3 {
        fill: #62e595;
      }

      .cls-3, .cls-4 {
        stroke-width: 0px;
      }

      .cls-4 {
        fill: #fff;
      }
    </style>
  </defs>
  <g >
    <g>
      <path class="cls-2" d="M19.9,33.63c-1.38-9.59-7.45-12.61-15.75-11.77"/>
      <path class="cls-4" d="M24.31,22.37c3.91,0,5.74,2.01,5.74,5.13s-1.71,5.37-5.49,5.37c-4.33,0-6.34-2.81-6.34-6.65,0-.67,0-1.04.06-1.59,1.04-.98,2.87-2.26,6.04-2.26M34.8,8.11l-2.74-8.11C17.29,2.38,7.54,12.01,7.54,25.3c0,9.7,5.79,16.28,17.25,16.28,10.85,0,15.91-7.19,15.91-13.78s-4.27-11.76-12.68-11.76c-2.99,0-5.31.67-7.51,2.74l-.3-.18c2.08-4.39,6.47-7.86,14.58-10.49"/>
      <path class="cls-3" d="M44.35,2.97c-2.64-.21-4.95,1.77-5.16,4.41-.21,2.64,1.77,4.95,4.41,5.16,2.64.21,4.95-1.76,5.16-4.41.21-2.64-1.77-4.95-4.41-5.16"/>
      <path class="cls-2" d="M60.97,33.73c10.05,3.83,17.48,1.8,22.96-3.38"/>
      <path class="cls-2" d="M77.81,9.61c-5.15-6.09-10.41-4.49-15.39,1.33"/>
      <path class="cls-1" d="M59.32,21.9c-11.84-4.27-20.77-2.81-27.52,1.77"/>
      <path class="cls-4" d="M58.6,53.07c1.45,0,2.59-.64,2.59-1.97,0-2.52-3.58-2.19-3.58-4.01,0-.72.5-1.15,1.28-1.15.21,0,.4.06.55.13l1.26,2.07h.07c.04-.66.07-1.39.08-2.01-.48-.23-1.12-.38-1.89-.38-1.3,0-2.32.63-2.32,1.88,0,2.39,3.57,2.02,3.57,3.9,0,.88-.6,1.35-1.48,1.35-.28,0-.5-.04-.67-.11l-1.35-2.21h-.08c-.01.61-.02,1.43,0,2.18.54.21,1.28.33,1.98.33M49.35,52.87c-1.32,0-1.94-1.12-1.94-3.46s.63-3.46,1.94-3.46,1.95,1.12,1.95,3.46-.64,3.46-1.95,3.46M49.35,53.07c2.01,0,3.4-1.49,3.4-3.65s-1.4-3.67-3.4-3.67-3.41,1.5-3.41,3.67,1.39,3.65,3.41,3.65M40.56,45.91c.24.15.58.35.9.53v4.67l-3.92-5.25h-1.68v.04l.75.8v5.68c-.32.18-.65.36-.89.53v.04h1.97v-.04c-.23-.17-.58-.37-.89-.53v-5.44l4.53,6.01h.32v-6.52c.31-.17.65-.38.88-.53v-.04h-1.98v.04ZM38.06,44.46c.67,0,1.29.62,1.98.62.61,0,.99-.35,1.05-1.36h-.09c-.12.39-.33.52-.65.52-.67,0-1.34-.61-1.99-.61s-.99.43-1.04,1.36h.09c.13-.39.32-.53.65-.53M28.61,47.32l1.19,3.22h-2.42l1.23-3.22ZM29.36,45.81h-.35l-2.54,6.58c-.36.19-.66.36-.91.53v.04h1.97v-.04c-.28-.19-.52-.34-.85-.53l.63-1.65h2.56l.67,1.81c-.29.12-.53.23-.78.37v.04h2.88v-.04c-.25-.14-.49-.25-.77-.37l-2.51-6.74Z"/>
      <path class="cls-4" d="M58.83,32.07c-4.52,0-7.02-3.11-7.02-11.29s2.38-11.04,7.02-11.04,7.02,3.23,7.02,11.04-2.5,11.29-7.02,11.29M58.83,41.58c11.34,0,17.62-7.55,17.62-20.91S69.32.24,58.83.24s-17.62,6.58-17.62,20.42,6.28,20.91,17.62,20.91"/>
    </g>
  </g>
</svg>