<?xml version="1.0" encoding="UTF-8"?>
<svg id="Capa_2" data-name="Capa 2" xmlns="http://www.w3.org/2000/svg" viewBox="0 0 151.64 115.22">
  <defs>
    <style>
      .cls-1 {
        fill: #62e595;
        stroke-width: 0px;
      }
    </style>
  </defs>
  <g id="Capa_1-2" data-name="Capa 1">
    <g>
      <path class="cls-1" d="M128.9,51.91c3.23-1.54,4.59-5.4,3.06-8.63-1.54-3.23-5.4-4.59-8.63-3.06-3.23,1.54-4.59,5.4-3.06,8.63,1.54,3.23,5.4,4.59,8.63,3.06"/>
      <path class="cls-1" d="M104.58,19.75c3.23-1.54,4.59-5.4,3.06-8.63-1.54-3.23-5.4-4.6-8.63-3.06-3.23,1.54-4.59,5.4-3.06,8.63,1.54,3.23,5.4,4.59,8.63,3.06"/>
      <path class="cls-1" d="M72.89,53.49c3.23-1.54,4.59-5.4,3.06-8.63-1.54-3.23-5.4-4.59-8.63-3.06-3.23,1.54-4.59,5.4-3.06,8.63,1.54,3.23,5.4,4.6,8.63,3.06"/>
      <path class="cls-1" d="M30.87,70.92c3.23-1.54,4.59-5.4,3.06-8.63-1.54-3.23-5.4-4.59-8.63-3.06-3.23,1.54-4.59,5.4-3.06,8.63,1.54,3.23,5.4,4.6,8.63,3.06"/>
      <path class="cls-1" d="M61.25,94.39c3.23-1.54,4.59-5.4,3.06-8.63-1.54-3.23-5.4-4.59-8.63-3.06-3.23,1.54-4.59,5.4-3.06,8.63,1.54,3.23,5.4,4.6,8.63,3.06"/>
      <path class="cls-1" d="M97.26,84.38c3.23-1.54,4.59-5.4,3.06-8.63-1.54-3.23-5.4-4.6-8.63-3.06-3.23,1.54-4.59,5.4-3.06,8.63,1.54,3.23,5.4,4.59,8.63,3.06"/>
      <path class="cls-1" d="M40.38,97.75c-.6.17-1.23.25-1.89.22-3.23-.15-5.73-2.89-5.58-6.13.76-16.43,10.09-26.75,26.97-29.85,10.57-1.94,17.83-5.7,21.58-11.18,3.17-4.63,4.03-10.88,2.55-18.56-.61-3.18,1.47-6.26,4.65-6.86,3.18-.61,6.25,1.47,6.86,4.65,2.09,10.87.61,20.08-4.39,27.39-5.58,8.16-15.38,13.57-29.14,16.1-11.51,2.11-16.87,7.93-17.38,18.86-.12,2.58-1.89,4.69-4.24,5.37"/>
      <path class="cls-1" d="M13.25,91.84c-2.44.7-5.14-.25-6.57-2.5C.77,80-1.24,70.88.73,62.25c2.2-9.63,9.34-18.27,21.21-25.66,9.94-6.18,12.79-13.56,9.26-23.91-1.05-3.06.59-6.4,3.65-7.44,3.07-1.04,6.4.59,7.44,3.65,5.31,15.57.42,28.59-14.16,37.66-9.12,5.68-14.5,11.84-15.98,18.31-1.25,5.47.24,11.6,4.43,18.21,1.73,2.73.92,6.36-1.81,8.09-.49.31-1,.54-1.52.69"/>
      <path class="cls-1" d="M122.55,77.22c-2.93.84-6.05-.71-7.11-3.62-1.12-3.04.45-6.41,3.48-7.52,10.09-3.7,16.61-8.64,19.37-14.67,2.34-5.1,2.13-11.41-.63-18.73-1.14-3.03.39-6.41,3.42-7.55,3.03-1.14,6.41.39,7.55,3.42,3.9,10.36,4,19.69.31,27.74-4.12,8.98-12.86,15.98-25.99,20.8-.14.05-.27.09-.41.13"/>
      <path class="cls-1" d="M52.68,58.03c-.25.07-.51.12-.77.16-2.77.34-5.29-1.62-5.63-4.39-1.75-14.06,4.66-24.18,18.54-29.27,2.62-.96,5.52.38,6.48,3,.96,2.62-.38,5.52-3,6.48-9.46,3.47-13.16,9.19-12,18.54.31,2.5-1.26,4.8-3.61,5.48"/>
      <path class="cls-1" d="M75.48,15.75c-8.41,2.41-16.9.11-24.98-6.88-2.11-1.82-2.34-5.01-.52-7.12,1.82-2.11,5.01-2.34,7.12-.52,7.62,6.59,14.42,7.06,22.04,1.51,2.25-1.64,5.41-1.15,7.06,1.11,1.64,2.25,1.15,5.41-1.11,7.06-3.17,2.31-6.39,3.93-9.61,4.86"/>
      <path class="cls-1" d="M63.89,113.92c-2.86.82-6.02,1.25-9.48,1.29-2.79.03-5.07-2.2-5.11-4.99-.03-2.79,2.2-5.08,4.99-5.11,10.08-.11,15.48-4.27,17.5-13.47.6-2.72,3.29-4.45,6.02-3.85,2.72.6,4.45,3.29,3.85,6.02-2.33,10.6-8.41,17.43-17.78,20.11"/>
      <path class="cls-1" d="M111.84,54c-2.59.74-5.32-.68-6.18-3.26-2.24-6.73-2.1-12.26.43-16.44,2.28-3.77,6.26-6.14,11.82-7.05,2.75-.45,5.35,1.42,5.79,4.18.45,2.75-1.42,5.35-4.18,5.79-1.72.28-3.95.91-4.8,2.31-.9,1.49-.72,4.34.51,8.02.88,2.65-.55,5.5-3.2,6.39-.07.02-.14.04-.21.06"/>
    </g>
  </g>
</svg>