<?xml version="1.0" encoding="UTF-8"?>
<svg id="Capa_2" data-name="Capa 2" xmlns="http://www.w3.org/2000/svg" viewBox="0 0 292.85 335.03">
  <defs>
    <style>
      .cls-1 {
        fill: #62e595;
        stroke-width: 0px;
      }
    </style>
  </defs>
  <g id="Capa_1-2" data-name="Capa 1">
    <path class="cls-1" d="M34.47,333.99c-2.76.79-5.68,1.15-8.7,1.01-14.91-.69-26.43-13.33-25.74-28.24,3.51-75.72,46.48-123.3,124.31-137.56,48.7-8.93,82.17-26.27,99.44-51.53,14.61-21.36,18.57-50.14,11.77-85.55-2.81-14.65,6.78-28.83,21.44-31.63,14.65-2.81,28.81,6.78,31.63,21.44,9.61,50.08,2.81,92.55-20.24,126.24-25.71,37.59-70.89,62.56-134.3,74.18-53.05,9.73-77.74,36.53-80.08,86.91-.55,11.89-8.7,21.62-19.54,24.73"/>
  </g>
</svg>