<?xml version="1.0" encoding="UTF-8"?>
<svg id="Capa_2" data-name="Capa 2" xmlns="http://www.w3.org/2000/svg" viewBox="0 0 218.65 65.79">
  <defs>
    <style>
      .cls-1 {
        stroke-width: 9.77px;
      }

      .cls-1, .cls-2 {
        fill: none;
        stroke: #62e595;
        stroke-linecap: round;
      }

      .cls-2 {
        stroke-width: 10.27px;
      }

      .cls-3 {
        fill: #62e595;
      }

      .cls-3, .cls-4 {
        stroke-width: 0px;
      }

      .cls-4 {
        fill: #1a2a22;
      }
    </style>
  </defs>
  <g id="Capa_1-2" data-name="Capa 1">
    <g>
      <path class="cls-2" d="M24.67,41.69c-1.71-11.88-9.23-15.63-19.53-14.59"/>
      <path class="cls-4" d="M30.13,27.73c4.84,0,7.11,2.5,7.11,6.35s-2.12,6.66-6.81,6.66c-5.37,0-7.87-3.48-7.87-8.25,0-.83,0-1.29.08-1.97,1.29-1.21,3.56-2.8,7.49-2.8M43.14,10.05l-3.4-10.05C21.44,2.95,9.35,14.89,9.35,31.36c0,12.02,7.18,20.18,21.39,20.18,13.46,0,19.72-8.91,19.72-17.08s-5.29-14.58-15.71-14.58c-3.71,0-6.58.83-9.3,3.4l-.38-.23c2.57-5.44,8.02-9.75,18.07-13"/>
      <path class="cls-3" d="M54.98,3.69c-3.28-.26-6.14,2.19-6.4,5.47-.26,3.28,2.19,6.14,5.46,6.4s6.14-2.19,6.4-5.46-2.19-6.14-5.46-6.4"/>
      <path class="cls-2" d="M75.59,41.82c12.46,4.75,21.67,2.23,28.46-4.18"/>
      <path class="cls-2" d="M96.46,12.79c-6.39-7.55-12.9-5.56-19.08,1.65"/>
      <path class="cls-1" d="M73.54,27.14c-14.68-5.29-25.75-3.48-34.11,2.2"/>
      <path class="cls-4" d="M213.64,44.17c2.99,0,5.01-1.29,5.01-3.72,0-4.51-6.37-4.37-6.37-7.66,0-1.18.84-1.88,2.06-1.88.32,0,.56.08.78.18l2.73,4.1h.1c.08-1.37.12-2.84.14-3.9-.94-.49-2.18-.76-3.57-.76-2.75,0-4.67,1.31-4.67,3.63,0,4.29,6.35,3.96,6.35,7.37,0,1.47-1.02,2.23-2.47,2.23-.36,0-.64-.04-.88-.14l-2.95-4.31h-.12c-.04,1.16-.06,2.67-.06,4.15.98.43,2.49.69,3.91.69M199.77,43.76c-2.11,0-3.03-1.94-3.03-6.41s.92-6.39,3.03-6.39,3.03,1.92,3.03,6.39-.94,6.41-3.03,6.41M199.77,44.15c3.75,0,6.33-2.78,6.33-6.78s-2.61-6.82-6.33-6.82-6.35,2.82-6.35,6.82,2.59,6.78,6.35,6.78M187.02,30.83c.44.39,1.02.84,1.62,1.27v7.92l-6.78-9.27h-3.71v.08l1.44,1.65v10.11c-.58.43-1.16.88-1.6,1.29v.06h3.59v-.06c-.44-.41-1.02-.86-1.6-1.29v-9.64l8.08,10.99h.96v-11.84c.58-.43,1.18-.88,1.6-1.27v-.08h-3.61v.08ZM174.97,30.75h-5.49v.08c.38.25.82.47,1.28.7v11.64c-.46.23-.9.45-1.28.71v.06h5.49v-.06c-.36-.24-.82-.49-1.28-.71v-11.64c.46-.23.92-.47,1.28-.7v-.08ZM165.33,43.17l-.82-11.58c.52-.23.94-.49,1.38-.76v-.08h-3.99l-3.51,9.56-3.23-9.56h-4.39v.08c.5.29.96.55,1.54.82l-.82,10.95c-.56.39-1.22.88-1.7,1.29v.06h3.89v-.06c-.52-.43-1.18-.88-1.8-1.29l.76-10.41h.02l4.01,11.58h.86l4.19-11.39h.02l.68,10.8c-.46.23-.84.45-1.24.71v.06h5.45v-.06c-.42-.24-.84-.49-1.3-.71M140.23,33.75l2.07,5.8h-4.19l2.12-5.8ZM142.16,30.71h-1.14l-4.43,11.88c-.7.49-1.24.88-1.7,1.29v.06h3.73v-.06c-.56-.49-1-.84-1.6-1.29l.98-2.68h4.43l1.16,3.25c-.5.24-.9.47-1.28.71v.06h5.59v-.06c-.4-.27-.76-.47-1.26-.71l-4.47-12.46ZM132.23,39.41l-2.85,4.08c-.24.14-.68.27-1.08.27-2.11,0-3.13-2.06-3.13-6.51s.96-6.29,3.19-6.29c.34,0,.72.08.96.24l2.77,4.08h.12c.08-1.39.14-2.82.14-3.9-1.06-.51-2.61-.84-3.93-.84-3.97,0-6.57,2.68-6.57,6.82s2.49,6.78,6.47,6.78c1.54,0,3.19-.39,4.17-.98,0-1.02-.04-2.37-.14-3.76h-.12Z"/>
      <path class="cls-4" d="M212.32,23.99c-2.1,0-3.03-1.94-3.03-6.41s.92-6.39,3.03-6.39,3.03,1.92,3.03,6.39-.94,6.41-3.03,6.41M212.32,24.38c3.75,0,6.33-2.78,6.33-6.78s-2.61-6.82-6.33-6.82-6.35,2.82-6.35,6.82,2.59,6.78,6.35,6.78M195.9,23.79c-.68,0-1.2-.08-1.9-.47v-11.95h1.6c2.15,0,3.81,1.47,3.81,6.21s-1.34,6.21-3.51,6.21M195.84,10.98h-6.05v.08c.38.25.82.47,1.28.69v11.64c-.46.22-.88.45-1.26.71v.06h6.23c3.07,0,6.6-2,6.6-6.64s-3.51-6.56-6.8-6.56M183.29,11.06c.44.39,1.02.84,1.62,1.27v7.92l-6.78-9.27h-3.71v.08l1.44,1.65v10.11c-.58.43-1.16.88-1.6,1.29v.06h3.59v-.06c-.44-.41-1.02-.86-1.6-1.29v-9.64l8.08,10.99h.96v-11.84c.58-.43,1.18-.88,1.6-1.27v-.08h-3.61v.08ZM170.7,19.56l-2.81,4.23h-2.03l-1.12-.39v-5.74h1.62c.46.8,1.08,1.76,1.62,2.51h.12v-5.41h-.12c-.52.76-1.16,1.73-1.62,2.51h-1.62v-5.9h2.83l2.83,4.15h.12c.08-1.35.14-3.29.14-4.53h-10.12v.08c.38.25.82.47,1.28.69v11.64c-.46.22-.9.45-1.28.71v.06h10.4c0-1.23-.04-3.27-.14-4.61h-.1ZM156.79,10.98h-5.49v.08c.38.25.82.47,1.28.69v11.64c-.46.22-.9.45-1.28.71v.06h5.49v-.06c-.36-.24-.82-.49-1.28-.71v-11.64c.46-.22.92-.47,1.28-.69v-.08ZM147.65,19.64l-2.85,4.08c-.24.14-.68.27-1.08.27-2.1,0-3.13-2.06-3.13-6.51s.96-6.29,3.19-6.29c.34,0,.72.08.96.24l2.77,4.08h.12c.08-1.39.14-2.82.14-3.9-1.06-.51-2.61-.84-3.93-.84-3.97,0-6.58,2.67-6.58,6.82s2.49,6.78,6.47,6.78c1.54,0,3.19-.39,4.17-.98,0-1.02-.04-2.37-.14-3.76h-.12ZM127.68,13.98l2.06,5.8h-4.19l2.12-5.8ZM129.61,10.94h-1.14l-4.43,11.89c-.7.49-1.24.88-1.7,1.29v.06h3.73v-.06c-.56-.49-1-.84-1.6-1.29l.98-2.68h4.43l1.16,3.25c-.5.24-.9.47-1.28.71v.06h5.59v-.06c-.4-.26-.76-.47-1.26-.71l-4.47-12.46ZM120.09,10.98h-5.49v.08c.38.25.82.47,1.28.69v5.55h-4.87v-5.55c.46-.22.92-.47,1.28-.69v-.08h-5.49v.08c.38.25.82.47,1.28.69v11.64c-.46.22-.9.45-1.28.71v.06h5.49v-.06c-.36-.24-.82-.49-1.28-.71v-5.7h4.87v5.7c-.46.22-.9.45-1.28.71v.06h5.49v-.06c-.36-.24-.82-.49-1.28-.71v-11.64c.46-.22.92-.47,1.28-.69v-.08Z"/>
      <path class="cls-4" d="M215.14,59.03l1.04,2.8h-2.1l1.07-2.8ZM215.8,57.72h-.31l-2.21,5.72c-.32.16-.58.32-.79.46v.04h1.71v-.04c-.24-.16-.45-.3-.74-.46l.55-1.43h2.23l.59,1.58c-.25.11-.46.2-.68.32v.04h2.51v-.04c-.22-.12-.42-.22-.67-.32l-2.18-5.86ZM207.37,57.8c.2.11.46.22.69.31v5.48c-.23.09-.49.2-.69.31v.04h2.48v-.04c-.19-.11-.46-.22-.69-.31v-5.48c.23-.09.5-.2.69-.31v-.04h-2.48v.04ZM208.19,57.2h.03l2.12-1.48v-.03h-1.72l-.43,1.51ZM201.98,61.11c.21.11.53.21.88.31v2.15c-.19.16-.51.29-.95.29-1.12,0-1.75-.97-1.75-3.04s.57-2.98,1.82-2.98c.25,0,.51.08.69.2l1.06,1.73h.06c.05-.66.07-1.28.07-1.76-.49-.22-1.21-.35-1.86-.35-1.89,0-3.11,1.27-3.11,3.18s1.19,3.18,2.98,3.18c.52,0,1.09-.13,1.54-.35l.45.35h.05v-2.61c.19-.11.36-.2.51-.31v-.05h-2.43v.05ZM192.7,63.86c-1.14,0-1.69-.97-1.69-3.01s.55-3.01,1.69-3.01,1.69.97,1.69,3.01-.56,3.01-1.69,3.01M192.7,64.03c1.75,0,2.96-1.3,2.96-3.17s-1.22-3.19-2.96-3.19-2.97,1.31-2.97,3.19,1.21,3.17,2.97,3.17M186.6,61.73l-1.11,2.03h-1.19l-.49-.17v-5.48c.23-.09.5-.2.69-.31v-.04h-2.48v.04c.2.11.46.22.69.31v5.48c-.23.09-.49.2-.69.31v.04h4.71c0-.59-.02-1.58-.07-2.2h-.07ZM176,63.86c-1.14,0-1.69-.97-1.69-3.01s.55-3.01,1.69-3.01,1.69.97,1.69,3.01-.56,3.01-1.69,3.01M176,64.03c1.75,0,2.96-1.3,2.96-3.17s-1.22-3.19-2.96-3.19-2.97,1.31-2.97,3.19,1.21,3.17,2.97,3.17M166.8,61.15v-3.21h.74c.72,0,1.35.45,1.35,1.72,0,1.01-.38,1.49-1.25,1.49h-.85ZM167.75,57.76h-2.71v.04c.22.12.43.21.67.31v5.48c-.24.1-.45.19-.67.31v.04h2.56v-.04c-.25-.12-.51-.21-.79-.31v-2.27h.86c1.15,0,2.4-.51,2.4-1.8,0-1.16-1.12-1.76-2.32-1.76M159,63.86c-1.14,0-1.69-.97-1.69-3.01s.55-3.01,1.69-3.01,1.69.97,1.69,3.01-.56,3.01-1.69,3.01M159,64.03c1.75,0,2.96-1.3,2.96-3.17s-1.22-3.19-2.96-3.19-2.97,1.31-2.97,3.19,1.21,3.17,2.97,3.17M149.47,57.94h.63c.74,0,1.27.39,1.27,1.51,0,.74-.28,1.18-.97,1.47h-.93v-2.98ZM151.4,61.13c-.24-.06-.48-.09-.73-.11h0c1.02-.22,1.85-.73,1.85-1.63,0-1.1-1.08-1.62-2.19-1.62h-2.63v.04c.22.12.45.21.69.31v5.48c-.24.1-.47.19-.69.31v.04h2.52v-.04c-.23-.12-.46-.21-.73-.31v-2.5h.8l1.36,2.54c-.18.08-.37.17-.53.27v.04h2.4v-.04c-.18-.11-.41-.21-.68-.33l-1.42-2.44ZM139.48,57.76c0,.59.02,1.38.07,2h.06l1.12-1.83h.84v5.65c-.24.09-.5.2-.71.31v.04h2.51v-.04c-.21-.11-.47-.22-.7-.31v-5.65h.84l1.12,1.83h.07c.05-.62.07-1.41.07-2h-5.26ZM134.89,57.8c.21.13.5.31.78.46v4.07l-3.41-4.57h-1.46v.04l.65.69v4.94c-.28.15-.57.32-.77.46v.04h1.71v-.04c-.2-.15-.5-.32-.77-.46v-4.73l3.94,5.23h.28v-5.67c.27-.14.57-.33.77-.46v-.04h-1.72v.04ZM124.5,59.03l1.04,2.8h-2.1l1.07-2.8ZM125.16,57.72h-.31l-2.21,5.72c-.32.16-.58.32-.79.46v.04h1.71v-.04c-.24-.16-.45-.3-.74-.46l.55-1.43h2.23l.59,1.58c-.25.11-.46.2-.68.32v.04h2.51v-.04c-.22-.12-.42-.22-.67-.32l-2.18-5.86Z"/>
      <path class="cls-4" d="M72.65,65.79c1.79,0,3.21-.79,3.21-2.44,0-3.12-4.44-2.71-4.44-4.97,0-.89.62-1.43,1.59-1.43.26,0,.49.07.69.17l1.56,2.56h.08c.05-.82.08-1.73.1-2.49-.59-.29-1.38-.47-2.34-.47-1.62,0-2.88.78-2.88,2.33,0,2.96,4.43,2.51,4.43,4.84,0,1.1-.74,1.67-1.83,1.67-.34,0-.62-.05-.84-.14l-1.67-2.74h-.1c-.01.75-.03,1.77,0,2.7.67.26,1.59.41,2.45.41M61.18,65.54c-1.63,0-2.41-1.38-2.41-4.29s.78-4.29,2.41-4.29,2.41,1.38,2.41,4.29-.79,4.29-2.41,4.29M61.18,65.79c2.49,0,4.22-1.85,4.22-4.52s-1.74-4.55-4.22-4.55-4.23,1.86-4.23,4.55,1.73,4.52,4.23,4.52M50.28,56.91c.3.19.71.44,1.11.66v5.8l-4.86-6.51h-2.08v.05l.93.99v7.04c-.4.22-.81.45-1.1.66v.05h2.44v-.05c-.29-.21-.71-.45-1.1-.66v-6.74l5.62,7.45h.4v-8.08c.38-.21.81-.47,1.1-.66v-.05h-2.45v.05ZM47.18,55.12c.84,0,1.6.77,2.45.77.75,0,1.23-.44,1.3-1.68h-.11c-.15.48-.41.64-.81.64-.84,0-1.66-.75-2.47-.75s-1.23.53-1.29,1.68h.11c.16-.48.4-.66.81-.66M35.47,58.66l1.48,3.99h-3l1.52-3.99ZM36.4,56.79h-.44l-3.15,8.15c-.45.23-.82.45-1.12.66v.05h2.44v-.05c-.34-.23-.64-.43-1.06-.66l.78-2.04h3.18l.84,2.25c-.36.15-.66.29-.97.45v.05h3.58v-.05c-.31-.18-.6-.32-.96-.45l-3.11-8.36Z"/>
      <path class="cls-4" d="M72.93,39.76c-5.6,0-8.7-3.86-8.7-13.99s2.95-13.69,8.7-13.69,8.7,4.01,8.7,13.69-3.1,13.99-8.7,13.99M72.93,51.55c14.06,0,21.84-9.37,21.84-25.92S85.93.3,72.93.3s-21.84,8.16-21.84,25.32,7.78,25.92,21.84,25.92"/>
    </g>
  </g>
</svg>