<?xml version="1.0" encoding="UTF-8"?>
<svg id="Capa_2" data-name="Capa 2" xmlns="http://www.w3.org/2000/svg" viewBox="0 0 178.31 53.07">
  <defs>
    <style>
      .cls-1 {
        stroke-width: 7.88px;
      }

      .cls-1, .cls-2 {
        fill: none;
        stroke: #62e595;
        stroke-linecap: round;
      }

      .cls-2 {
        stroke-width: 8.29px;
      }

      .cls-3 {
        fill: #62e595;
      }

      .cls-3, .cls-4 {
        stroke-width: 0px;
      }

      .cls-4 {
        fill: #fff;
      }
    </style>
  </defs>
  <g id="Capa_1-2" data-name="Capa 1">
    <g>
      <path class="cls-2" d="M19.9,33.63c-1.38-9.59-7.45-12.61-15.75-11.77"/>
      <path class="cls-4" d="M24.31,22.37c3.91,0,5.74,2.01,5.74,5.13s-1.71,5.37-5.49,5.37c-4.33,0-6.34-2.81-6.34-6.65,0-.67,0-1.04.06-1.59,1.04-.98,2.87-2.26,6.04-2.26M34.8,8.11l-2.74-8.11C17.29,2.38,7.54,12.01,7.54,25.3c0,9.7,5.79,16.28,17.25,16.28,10.85,0,15.91-7.19,15.91-13.78s-4.27-11.76-12.68-11.76c-2.99,0-5.31.67-7.51,2.74l-.3-.18c2.08-4.39,6.47-7.86,14.58-10.49"/>
      <path class="cls-3" d="M44.35,2.97c-2.64-.21-4.95,1.77-5.16,4.41-.21,2.64,1.77,4.95,4.41,5.16,2.64.21,4.95-1.76,5.16-4.41.21-2.64-1.77-4.95-4.41-5.16"/>
      <path class="cls-2" d="M60.97,33.73c10.05,3.83,17.48,1.8,22.96-3.38"/>
      <path class="cls-2" d="M77.81,9.61c-5.15-6.09-10.41-4.49-15.39,1.33"/>
      <path class="cls-1" d="M59.32,21.9c-11.84-4.27-20.77-2.81-27.52,1.77"/>
      <path class="cls-4" d="M174.26,40.12c2.41,0,4.04-1.04,4.04-3,0-3.64-5.14-3.52-5.14-6.18,0-.96.68-1.51,1.67-1.51.26,0,.45.06.63.15l2.2,3.31h.08c.07-1.1.1-2.29.11-3.15-.76-.39-1.76-.61-2.88-.61-2.21,0-3.77,1.05-3.77,2.93,0,3.46,5.13,3.2,5.13,5.95,0,1.19-.82,1.79-1.99,1.79-.29,0-.52-.03-.71-.11l-2.38-3.48h-.1c-.03.94-.05,2.16-.05,3.34.79.35,2.01.56,3.15.56M163.07,39.79c-1.7,0-2.44-1.57-2.44-5.17s.74-5.16,2.44-5.16,2.44,1.55,2.44,5.16-.76,5.17-2.44,5.17M163.07,40.11c3.02,0,5.11-2.24,5.11-5.47s-2.1-5.5-5.11-5.5-5.13,2.27-5.13,5.5,2.09,5.47,5.13,5.47M152.79,29.37c.36.31.83.67,1.31,1.02v6.39l-5.47-7.48h-2.99v.07l1.16,1.33v8.15c-.47.35-.94.71-1.29,1.04v.05h2.89v-.05c-.36-.33-.82-.69-1.29-1.04v-7.78l6.52,8.86h.78v-9.55c.47-.35.95-.71,1.29-1.02v-.07h-2.91v.07ZM143.07,29.3h-4.43v.07c.31.2.66.38,1.03.56v9.39c-.37.18-.73.36-1.03.58v.05h4.43v-.05c-.29-.2-.66-.4-1.03-.58v-9.39c.37-.18.74-.38,1.03-.56v-.07ZM135.29,39.32l-.66-9.34c.42-.18.76-.4,1.12-.61v-.07h-3.22l-2.83,7.71-2.6-7.71h-3.54v.07c.4.23.78.44,1.24.66l-.66,8.83c-.45.31-.99.71-1.38,1.04v.05h3.14v-.05c-.42-.35-.95-.71-1.45-1.04l.61-8.4h.02l3.23,9.34h.7l3.38-9.19h.02l.55,8.71c-.37.18-.68.36-1,.58v.05h4.4v-.05c-.34-.2-.68-.4-1.05-.58M115.05,31.72l1.66,4.68h-3.38l1.71-4.68ZM116.6,29.27h-.92l-3.57,9.59c-.57.39-1,.71-1.38,1.04v.05h3.01v-.05c-.45-.4-.81-.67-1.29-1.04l.79-2.16h3.57l.94,2.62c-.4.2-.73.38-1.04.58v.05h4.51v-.05c-.32-.21-.61-.38-1.02-.58l-3.61-10.05ZM108.6,36.29l-2.3,3.29c-.19.12-.55.22-.87.22-1.7,0-2.52-1.66-2.52-5.26s.78-5.07,2.57-5.07c.28,0,.58.07.78.2l2.23,3.29h.1c.06-1.12.11-2.27.11-3.15-.86-.41-2.1-.68-3.17-.68-3.2,0-5.3,2.16-5.3,5.5s2.01,5.47,5.22,5.47c1.24,0,2.57-.31,3.36-.79,0-.82-.03-1.91-.11-3.03h-.1Z"/>
      <path class="cls-4" d="M173.2,23.85c-1.7,0-2.44-1.57-2.44-5.17s.74-5.16,2.44-5.16,2.44,1.55,2.44,5.16-.76,5.17-2.44,5.17M173.2,24.16c3.02,0,5.11-2.24,5.11-5.47s-2.1-5.5-5.11-5.5-5.13,2.27-5.13,5.5,2.09,5.47,5.13,5.47M159.95,23.68c-.55,0-.97-.07-1.54-.38v-9.64h1.29c1.73,0,3.07,1.19,3.07,5.01s-1.08,5.01-2.83,5.01M159.9,13.35h-4.88v.07c.31.2.66.38,1.03.56v9.39c-.37.18-.71.36-1.02.58v.05h5.03c2.47,0,5.32-1.61,5.32-5.35s-2.83-5.29-5.48-5.29M149.78,13.42c.35.31.82.68,1.31,1.02v6.39l-5.47-7.48h-2.99v.07l1.16,1.33v8.15c-.47.35-.94.71-1.29,1.04v.05h2.89v-.05c-.35-.33-.82-.69-1.29-1.04v-7.77l6.52,8.86h.78v-9.55c.47-.35.95-.71,1.29-1.02v-.07h-2.91v.07ZM139.63,20.27l-2.26,3.41h-1.63l-.91-.31v-4.63h1.31c.37.64.87,1.42,1.31,2.03h.1v-4.37h-.1c-.42.61-.94,1.4-1.31,2.03h-1.31v-4.76h2.28l2.28,3.34h.1c.07-1.09.11-2.65.11-3.66h-8.17v.07c.31.2.66.38,1.04.56v9.39c-.37.18-.73.36-1.04.58v.05h8.39c0-.99-.03-2.64-.11-3.72h-.08ZM128.4,13.35h-4.43v.07c.31.2.66.38,1.04.56v9.39c-.37.18-.73.36-1.04.58v.05h4.43v-.05c-.29-.2-.66-.4-1.03-.58v-9.39c.37-.18.74-.38,1.03-.56v-.07ZM121.03,20.34l-2.3,3.3c-.19.11-.55.21-.87.21-1.7,0-2.52-1.66-2.52-5.25s.78-5.07,2.57-5.07c.27,0,.58.07.78.2l2.23,3.29h.1c.07-1.12.11-2.27.11-3.15-.86-.41-2.1-.68-3.17-.68-3.2,0-5.3,2.16-5.3,5.5s2.01,5.47,5.22,5.47c1.24,0,2.57-.31,3.36-.79,0-.82-.03-1.91-.11-3.03h-.1ZM104.93,15.77l1.66,4.68h-3.38l1.72-4.68ZM106.48,13.32h-.92l-3.57,9.59c-.57.4-1,.71-1.38,1.04v.05h3.01v-.05c-.45-.4-.81-.68-1.29-1.04l.79-2.16h3.57l.94,2.62c-.4.2-.73.38-1.04.58v.05h4.51v-.05c-.32-.21-.61-.38-1.02-.58l-3.61-10.05ZM98.8,13.35h-4.43v.07c.31.2.66.38,1.03.56v4.48h-3.93v-4.48c.37-.18.74-.38,1.03-.56v-.07h-4.43v.07c.31.2.66.38,1.03.56v9.39c-.37.18-.73.36-1.03.58v.05h4.43v-.05c-.29-.2-.66-.4-1.03-.58v-4.6h3.93v4.6c-.37.18-.73.36-1.03.58v.05h4.43v-.05c-.29-.2-.66-.4-1.04-.58v-9.39c.37-.18.74-.38,1.04-.56v-.07Z"/>
      <path class="cls-4" d="M58.6,53.07c1.45,0,2.59-.64,2.59-1.97,0-2.52-3.58-2.19-3.58-4.01,0-.72.5-1.15,1.28-1.15.21,0,.4.06.55.13l1.26,2.07h.07c.04-.66.07-1.39.08-2.01-.48-.23-1.12-.38-1.89-.38-1.3,0-2.32.63-2.32,1.88,0,2.39,3.57,2.02,3.57,3.9,0,.88-.6,1.35-1.48,1.35-.28,0-.5-.04-.67-.11l-1.35-2.21h-.08c-.01.61-.02,1.43,0,2.18.54.21,1.28.33,1.98.33M49.35,52.87c-1.32,0-1.94-1.12-1.94-3.46s.63-3.46,1.94-3.46,1.95,1.12,1.95,3.46-.64,3.46-1.95,3.46M49.35,53.07c2.01,0,3.4-1.49,3.4-3.65s-1.4-3.67-3.4-3.67-3.41,1.5-3.41,3.67,1.39,3.65,3.41,3.65M40.56,45.91c.24.15.58.35.9.53v4.67l-3.92-5.25h-1.68v.04l.75.8v5.68c-.32.18-.65.36-.89.53v.04h1.97v-.04c-.23-.17-.58-.37-.89-.53v-5.44l4.53,6.01h.32v-6.52c.31-.17.65-.38.88-.53v-.04h-1.98v.04ZM38.06,44.46c.67,0,1.29.62,1.98.62.61,0,.99-.35,1.05-1.36h-.09c-.12.39-.33.52-.65.52-.67,0-1.34-.61-1.99-.61s-.99.43-1.04,1.36h.09c.13-.39.32-.53.65-.53M28.61,47.32l1.19,3.22h-2.42l1.23-3.22ZM29.36,45.81h-.35l-2.54,6.58c-.36.19-.66.36-.91.53v.04h1.97v-.04c-.28-.19-.52-.34-.85-.53l.63-1.65h2.56l.67,1.81c-.29.12-.53.23-.78.37v.04h2.88v-.04c-.25-.14-.49-.25-.77-.37l-2.51-6.74Z"/>
      <path class="cls-4" d="M58.83,32.07c-4.52,0-7.02-3.11-7.02-11.29s2.38-11.04,7.02-11.04,7.02,3.23,7.02,11.04-2.5,11.29-7.02,11.29M58.83,41.58c11.34,0,17.62-7.55,17.62-20.91S69.32.24,58.83.24s-17.62,6.58-17.62,20.42,6.28,20.91,17.62,20.91"/>
    </g>
  </g>
</svg>