<?xml version="1.0" encoding="UTF-8"?>
<svg xmlns="http://www.w3.org/2000/svg" viewBox="0 0 109.73 42.2">
  <defs>
    <style>
      .cls-1 {
        fill: #fff;
        stroke-width: 0px;
      }
    </style>
  </defs>
  <g >
    <g>
      <path class="cls-1" d="M25.79,29.4c-5.69,3.69-11.59,3.49-11.59,3.49,0,0-.16-.75-.1-2.05.07-1.3.77-.93,1.29-1.96.18-.37.35-.63.64-1.5.01-.04-.34-6.26-.43-8.9-.05-1.42-.32-3.8-.63-6.1-.18-1.37-.6-2.45-.79-3.75-.28-1.88-.6-3.99-.6-3.99-.23.6-.56,2.83-.9,5.35-.16,1.21-.32,2.49-.47,3.68-.32,2.53-1.11,9.29-1.22,9.66-.18.56-.2-.15-.2-.15,0,0,.47-7.09.61-10.21.07-1.52.18-3.19.37-4.8.14-1.2.33-2.37.57-3.41,0,0,.81-2.46,1.07-2.5.26-.05,1.2,1.55,1.51,2.97.72,3.21,1.14,3.61,1.69,6.98.52,3.2.99,5.88,1.06,6.31.23,1.59.12,6.54-.28,8.52-.1.54-.12.74-.47,1.09-.82.83-1.41,1.83-1.41,2.48s-.11.64.05,1.01c0,0,1.09,1.63,7.33-2.1,0,0,1.95-1.02,1.95-3.28V3.43s-6.19-2.09-10.96-2.09S3.12,3.43,3.12,3.43v22.72c0,1.4.2,4.02,2.2,4.92,0,0-5.32-1.82-5.32-4.95V1.49S8.12,0,13.86,0s14.01,1.49,14.01,1.49v24.66c0,2.12-2.08,3.25-2.08,3.25"/>
      <path class="cls-1" d="M101.47,9.71v-4.72c-.2-.06-.41-.09-.66-.09-1.15,0-1.73.83-1.73,2.5s.54,2.46,1.62,2.46c.36,0,.61-.05.77-.15M102.95,10.33c-.57.32-1.33.48-2.29.48s-1.72-.29-2.25-.88c-.54-.58-.8-1.4-.8-2.45s.27-1.9.8-2.52c.52-.6,1.21-.9,2.07-.9.38,0,.71.04.99.13V1.53h1.48v8.8Z"/>
      <path class="cls-1" d="M108.33,6.78c0-1.24-.43-1.86-1.29-1.86-.46,0-.8.18-1.05.55-.27.4-.39.97-.38,1.73l2.72-.41ZM109.72,7.36l-4.02.58c.12,1.22.72,1.82,1.79,1.82.63,0,1.18-.12,1.66-.36l.35.93c-.56.31-1.28.46-2.17.46-.94,0-1.69-.3-2.23-.89-.54-.59-.82-1.44-.82-2.53s.25-1.89.75-2.49c.5-.6,1.18-.89,2.05-.89s1.54.29,2,.86c.45.57.67,1.4.63,2.5"/>
      <rect class="cls-1" x="32.69" y="13.79" width="2.33" height="14.4"/>
      <path class="cls-1" d="M43.46,23.04c0-2.57-.65-3.86-1.96-3.86s-1.97,1.29-1.97,3.86.65,3.76,1.97,3.76,1.96-1.25,1.96-3.76M45.77,23.06c0,1.59-.35,2.86-1.05,3.8-.76,1.02-1.84,1.53-3.23,1.53s-2.46-.51-3.23-1.53c-.7-.94-1.05-2.21-1.05-3.8s.35-2.88,1.05-3.82c.76-1.02,1.84-1.53,3.23-1.53s2.47.51,3.23,1.53c.7.94,1.05,2.21,1.05,3.82"/>
      <path class="cls-1" d="M53.75,25.23c0,.87-.34,1.6-1.01,2.21-.68.61-1.56.92-2.65.92-1.17,0-2.12-.25-2.85-.74l.61-1.49c.5.4,1.14.59,1.93.59.47,0,.85-.14,1.15-.41.29-.27.44-.62.44-1.04s-.12-.77-.34-1.02-.62-.47-1.16-.68c-1.56-.6-2.35-1.56-2.35-2.88,0-.84.3-1.55.91-2.12.6-.57,1.39-.86,2.35-.86,1.04,0,1.93.24,2.67.73l-.57,1.36c-.47-.38-1.02-.57-1.64-.57-.46,0-.82.13-1.08.39-.26.26-.39.58-.39.96,0,.67.51,1.21,1.53,1.62,1.64.66,2.46,1.67,2.46,3.03"/>
      <path class="cls-1" d="M66.75,22.99l-1.47-5.03c-.21-.71-.33-1.28-.37-1.73h-.04c-.07.37-.2.95-.4,1.73l-1.54,5.03h3.82ZM70.94,28.19h-2.72l-1.1-3.67h-4.61l-1.14,3.67h-2.37l4.73-14.28h2.49l4.71,14.28Z"/>
      <path class="cls-1" d="M80.52,28.19h-2.33v-7.29c0-1.14-.62-1.72-1.85-1.72-.59,0-1.12.1-1.6.29v8.72h-2.33v-9.73c1.06-.5,2.4-.75,4.03-.75,1.44,0,2.5.32,3.19.96.6.53.9,1.27.9,2.2v7.33Z"/>
      <path class="cls-1" d="M88.69,26.66v-7.4c-.31-.09-.65-.13-1.03-.13-1.81,0-2.71,1.3-2.71,3.91s.85,3.85,2.54,3.85c.56,0,.96-.07,1.2-.23M91.02,27.64c-.89.5-2.09.74-3.59.74s-2.69-.46-3.53-1.37c-.84-.92-1.26-2.19-1.26-3.84s.42-2.97,1.26-3.95c.81-.94,1.9-1.41,3.25-1.41.6,0,1.11.06,1.55.19v-4.16h2.33v13.8Z"/>
      <path class="cls-1" d="M99.44,22.07c0-1.95-.67-2.92-2.02-2.92-.71,0-1.26.29-1.64.86-.42.62-.62,1.53-.59,2.71l4.26-.65ZM101.61,22.98l-6.3.92c.19,1.91,1.12,2.86,2.8,2.86.99,0,1.86-.19,2.59-.57l.55,1.47c-.88.48-2.01.72-3.4.72-1.48,0-2.64-.46-3.49-1.39-.85-.93-1.28-2.25-1.28-3.97s.39-2.97,1.17-3.9c.78-.93,1.85-1.4,3.22-1.4s2.42.45,3.13,1.35c.71.9,1.04,2.21.99,3.92"/>
      <path class="cls-1" d="M109.62,25.23c0,.87-.34,1.6-1.01,2.21-.68.61-1.56.92-2.65.92-1.17,0-2.12-.25-2.85-.74l.61-1.49c.5.4,1.14.59,1.93.59.47,0,.85-.14,1.15-.41.29-.27.44-.62.44-1.04s-.11-.77-.34-1.02-.62-.47-1.16-.68c-1.57-.6-2.35-1.56-2.35-2.88,0-.84.3-1.55.9-2.12.61-.57,1.39-.86,2.36-.86,1.04,0,1.93.24,2.67.73l-.57,1.36c-.47-.38-1.02-.57-1.64-.57-.46,0-.82.13-1.08.39-.26.26-.39.58-.39.96,0,.67.51,1.21,1.53,1.62,1.64.66,2.46,1.67,2.46,3.03"/>
      <path class="cls-1" d="M44.98,10.71h-1.48v-4.65c0-.73-.39-1.1-1.18-1.1-.37,0-.71.06-1.02.18v5.57h-1.48v-6.21c.67-.32,1.53-.47,2.57-.47.92,0,1.59.2,2.03.61.38.34.57.81.57,1.4v4.68Z"/>
      <path class="cls-1" d="M48.1,10.71h-1.48v-6.57h1.48v6.57ZM48.18,2.27c0,.2-.08.38-.24.52-.16.14-.35.21-.58.21s-.42-.07-.58-.21c-.16-.14-.24-.32-.24-.52s.08-.38.24-.52c.16-.15.35-.22.58-.22s.42.07.58.21c.16.14.24.32.24.53"/>
      <path class="cls-1" d="M54.86,4.14l-2.11,6.57h-1.41l-2.14-6.57h1.58l1.16,4.24c.09.32.14.62.16.9h.02c.04-.24.1-.54.17-.9l1.18-4.24h1.39Z"/>
      <path class="cls-1" d="M59.7,6.8c0-1.24-.43-1.86-1.29-1.86-.46,0-.81.18-1.05.55-.27.4-.39.97-.38,1.73l2.72-.41ZM61.09,7.38l-4.02.58c.12,1.22.72,1.83,1.79,1.83.63,0,1.19-.12,1.66-.36l.35.94c-.56.31-1.28.46-2.17.46-.94,0-1.68-.3-2.23-.89-.54-.59-.82-1.44-.82-2.53s.25-1.89.75-2.49c.5-.6,1.18-.89,2.05-.89s1.54.29,2,.86c.46.57.67,1.4.63,2.5"/>
      <path class="cls-1" d="M65.6,4.03l-.29,1.09c-.22-.07-.45-.11-.68-.11-.28,0-.52.05-.71.16v5.54h-1.48v-6.21c.72-.35,1.78-.5,3.17-.46"/>
      <path class="cls-1" d="M70.33,8.82c0,.55-.22,1.02-.65,1.41-.43.39-.99.59-1.69.59-.75,0-1.35-.16-1.82-.48l.39-.95c.32.25.73.38,1.23.38.3,0,.54-.09.73-.26.19-.17.28-.39.28-.66s-.07-.49-.22-.65c-.15-.16-.39-.3-.74-.43-1-.38-1.5-.99-1.5-1.84,0-.54.19-.99.58-1.35.39-.37.89-.55,1.5-.55.67,0,1.23.15,1.7.46l-.37.86c-.3-.24-.65-.36-1.05-.36-.29,0-.52.08-.69.25-.17.17-.25.37-.25.61,0,.43.32.78.97,1.04,1.05.42,1.57,1.07,1.57,1.94"/>
      <path class="cls-1" d="M73.16,10.71h-1.48v-6.57h1.48v6.57ZM73.24,2.27c0,.2-.08.38-.24.52-.16.14-.35.21-.58.21s-.42-.07-.58-.21c-.16-.14-.24-.32-.24-.52s.08-.38.24-.52c.16-.15.35-.22.58-.22s.42.07.58.21c.16.14.24.32.24.53"/>
      <path class="cls-1" d="M78.42,9.73v-4.73c-.2-.06-.41-.08-.66-.08-1.15,0-1.73.83-1.73,2.5s.54,2.46,1.62,2.46c.36,0,.61-.05.77-.15M79.9,10.35c-.57.32-1.33.48-2.29.48s-1.72-.29-2.25-.88c-.54-.59-.8-1.4-.8-2.45s.27-1.9.8-2.52c.52-.6,1.21-.9,2.07-.9.38,0,.71.04.99.12V1.55h1.48v8.8Z"/>
      <path class="cls-1" d="M84.84,9.82v-2.71c-.78.1-1.33.25-1.65.45-.4.25-.61.66-.61,1.22,0,.81.46,1.22,1.37,1.22.35,0,.64-.06.89-.18M86.23,10.35c-.59.32-1.38.48-2.38.48-1.79,0-2.68-.67-2.68-2,0-.79.36-1.39,1.08-1.79.57-.31,1.43-.52,2.58-.63v-.35c0-.72-.43-1.08-1.3-1.08-.54,0-1.09.13-1.64.4l-.34-.85c.68-.33,1.43-.5,2.25-.5,1.62,0,2.42.75,2.42,2.26v4.06Z"/>
      <path class="cls-1" d="M91.43,9.73v-4.73c-.2-.06-.41-.08-.66-.08-1.15,0-1.73.83-1.73,2.5s.54,2.46,1.62,2.46c.36,0,.61-.05.77-.15M92.91,10.35c-.57.32-1.33.48-2.29.48s-1.72-.29-2.25-.88c-.54-.59-.8-1.4-.8-2.45s.27-1.9.81-2.52c.52-.6,1.21-.9,2.07-.9.38,0,.71.04.99.12V1.55h1.48v8.8Z"/>
      <path class="cls-1" d="M32.67,1.57h1.58v7.06c0,.78.42,1.16,1.25,1.16.4,0,.76-.06,1.09-.19V1.57h1.58v8.71c-.71.34-1.63.5-2.73.5-.97,0-1.69-.21-2.16-.65-.4-.36-.61-.86-.61-1.49V1.57Z"/>
      <path class="cls-1" d="M79.09,41.83c-.32.25-.77.37-1.37.37-.87,0-1.53-.37-1.98-1.1-.38-.61-.56-1.38-.56-2.3s.19-1.67.58-2.29c.46-.74,1.11-1.11,1.97-1.11.56,0,1.02.12,1.36.37l-.26.73c-.26-.15-.54-.23-.86-.23-.57,0-.98.3-1.24.9-.19.43-.28.97-.28,1.63s.1,1.16.3,1.6c.26.58.67.88,1.22.88.32,0,.59-.08.83-.23l.29.79Z"/>
      <path class="cls-1" d="M82.45,39.71c0-1.18-.3-1.77-.91-1.77s-.9.59-.9,1.77.3,1.73.9,1.73.91-.58.91-1.73M83.51,39.72c0,.7-.15,1.26-.45,1.7-.35.5-.85.76-1.52.76s-1.17-.25-1.52-.76c-.3-.43-.45-1-.45-1.7s.15-1.27.45-1.7c.34-.5.85-.76,1.52-.76s1.18.25,1.52.76c.3.43.45,1,.45,1.7"/>
      <rect class="cls-1" x="84.52" y="35.43" width="1.08" height="6.65"/>
      <path class="cls-1" d="M89.48,39.71c0-1.18-.3-1.77-.9-1.77s-.9.59-.9,1.77.3,1.73.9,1.73.9-.58.9-1.73M90.54,39.72c0,.7-.15,1.26-.45,1.7-.35.5-.85.76-1.52.76s-1.17-.25-1.52-.76c-.3-.43-.45-1-.45-1.7s.15-1.27.45-1.7c.34-.5.85-.76,1.52-.76s1.18.25,1.52.76c.3.43.45,1,.45,1.7"/>
      <path class="cls-1" d="M97.9,42.08h-1.07v-3.36c0-.51-.27-.77-.8-.77-.31,0-.57.11-.79.32v3.81h-1.07v-3.38c0-.5-.3-.75-.89-.75-.26,0-.49.04-.7.13v4.01h-1.07v-4.48c.47-.23,1.07-.34,1.77-.34.67,0,1.16.17,1.48.52.38-.35.88-.52,1.52-.52.47,0,.86.13,1.16.38.31.25.46.61.46,1.07v3.37Z"/>
      <path class="cls-1" d="M101.84,39.67c0-1.17-.36-1.76-1.09-1.76-.26,0-.47.05-.64.14v3.37c.15.07.33.1.54.1.79,0,1.19-.62,1.19-1.85M102.9,39.61c0,.78-.19,1.39-.55,1.84-.4.49-.98.73-1.74.73-.69,0-1.21-.11-1.56-.34v-6.39h1.06v2.04c.28-.13.59-.19.93-.19.62,0,1.09.24,1.42.73.29.42.44.95.44,1.59"/>
      <path class="cls-1" d="M104.97,42.08h-1.08v-4.74h1.08v4.74ZM105.02,36c0,.15-.06.28-.18.38-.12.1-.25.15-.41.15s-.3-.05-.41-.15c-.12-.1-.18-.23-.18-.38s.06-.28.18-.38c.12-.1.26-.15.41-.15s.29.05.41.15c.12.1.18.23.18.39"/>
      <path class="cls-1" d="M108.57,41.44v-1.95c-.52.06-.89.15-1.11.27-.35.19-.53.5-.53.93,0,.59.33.88,1,.88.25,0,.47-.04.64-.13M109.57,41.83c-.43.23-1,.34-1.71.34-1.29,0-1.93-.48-1.93-1.44,0-.61.31-1.07.92-1.36.38-.18.95-.31,1.72-.39v-.25c0-.52-.31-.78-.94-.78-.39,0-.79.1-1.19.29l-.25-.62c.49-.24,1.03-.36,1.63-.36,1.17,0,1.75.54,1.75,1.63v2.93Z"/>
    </g>
  </g>
</svg>