
        <svg xmlns="http://www.w3.org/2000/svg" xmlns:xlink="http://www.w3.org/1999/xlink" version="1.1" width="3171.4285714285716" height="1528.6636129180802" viewBox="0 0 3171.4285714285716 1528.6636129180802">
			
			<g transform="scale(8.571428571428573) translate(10, 10)">
				<defs id="SvgjsDefs1054"><linearGradient id="SvgjsLinearGradient1059"><stop id="SvgjsStop1060" stop-color="#00ff8f" offset="0"/><stop id="SvgjsStop1061" stop-color="#00a1ff" offset="1"/></linearGradient></defs><g id="SvgjsG1055" featureKey="1p4tPl-0" transform="matrix(1.512345314025879,0,0,1.512345314025879,99.43827352798476,-19.397341069085307)" fill="#fff"><path xmlns="http://www.w3.org/2000/svg" d="M85.563,31.311c2.163,0,3.922-1.759,3.922-3.922c0-2.162-1.76-3.922-3.922-3.922c-1.773,0-3.274,1.184-3.757,2.802h-6.064  v2.113h6.031C82.215,30.065,83.744,31.311,85.563,31.311z M85.563,25.58c0.997,0,1.809,0.811,1.809,1.809s-0.812,1.809-1.809,1.809  s-1.809-0.811-1.809-1.809S84.565,25.58,85.563,25.58z M21.465,41.498c1.796,0,3.311-1.215,3.773-2.865h10.43v-2.113h-10.43  c-0.463-1.65-1.977-2.865-3.773-2.865c-2.163,0-3.922,1.759-3.922,3.922S19.302,41.498,21.465,41.498z M21.465,35.767  c0.997,0,1.809,0.811,1.809,1.809c0,0.997-0.812,1.809-1.809,1.809s-1.809-0.811-1.809-1.809  C19.656,36.578,20.467,35.767,21.465,35.767z M31.74,23.25v5.132h12.09v3.012h-5.96v2.113h5.96v3.012h-5.96v2.113h5.96v3.012h-5.96  v2.113h5.96v2.929h2.929v5.899h2.113v-5.899h3.012v5.899h2.113v-5.899h3.012v5.899h2.113v-5.899h3.012v5.899h2.113v-5.899h2.929  v-2.929h5.838v-2.113h-5.838v-3.012h5.838v-2.113h-5.838v-3.012h5.838v-2.113h-5.838v-3.012h5.838v-2.113h-5.838v-2.929h-2.929  v-5.899h-2.113v5.899h-3.012v-5.899h-2.113v5.899h-3.012v-5.899h-2.113v5.899h-3.012v-5.899h-2.113v5.899H43.83v2.929h-9.977V23.25  c1.65-0.463,2.865-1.977,2.865-3.773c0-2.162-1.759-3.922-3.922-3.922s-3.922,1.759-3.922,3.922  C28.874,21.273,30.089,22.787,31.74,23.25z M45.943,25.454h19.119v19.119H45.943V25.454z M32.796,17.668  c0.997,0,1.809,0.811,1.809,1.809s-0.811,1.809-1.809,1.809c-0.997,0-1.809-0.811-1.809-1.809S31.799,17.668,32.796,17.668z   M95,56.509c0,1.458-0.571,2.825-1.602,3.856l-20.74,20.673c-1.405,1.398-3.272,2.169-5.255,2.169h-28.15l-3.997,3.966h-3.004  l6.131-6.079h29.02c1.419,0,2.754-0.553,3.761-1.553l20.743-20.673c0.63-0.63,0.979-1.469,0.979-2.363  c0.004-0.891-0.345-1.729-0.976-2.363c-1.3-1.296-3.413-1.3-4.716-0.004L72.143,69.128c-1.532,1.525-3.568,2.367-5.726,2.367H45.885  v-2.113h19.852c1.838,0,3.335-1.497,3.335-3.339c0-1.838-1.497-3.335-3.335-3.335h-26.66c-4.191,0-8.135,1.627-11.108,4.585  L7.997,87.174H5l21.48-21.377c3.367-3.353,7.843-5.202,12.598-5.202h26.66c3.004,0,5.448,2.444,5.448,5.448  c0,0.405-0.046,0.803-0.13,1.183c0,0.002-0.001,0.003-0.001,0.005l0.001-0.001v-0.004l14.651-14.584  c2.124-2.117,5.579-2.113,7.699,0.007C94.436,53.681,95.004,55.051,95,56.509z M49.687,40.097h10.899V29.198H49.687V40.097z   M51.8,31.311h6.673v6.673H51.8V31.311z M62.133,54.652h2.113v2.377h-2.113V54.652z M48.871,15.203h-2.113v-2.377h2.113V15.203z"/></g><g id="SvgjsG1056" featureKey="dYASrj-0" transform="matrix(1.8093465566635132,0,0,1.8093465566635132,-2.1712168025304157,121.65053814464518)" fill="#fff"><path d="M11.1 6 c0.32 0 0.5 0.18 0.5 0.5 l0 13 c0 0.32 -0.18 0.5 -0.5 0.5 l-2.2 0 c-0.32 0 -0.5 -0.18 -0.5 -0.5 l0 -5.16 l-4 0 l0 5.16 c0 0.32 -0.18 0.5 -0.5 0.5 l-2.2 0 c-0.32 0 -0.5 -0.18 -0.5 -0.5 l0 -13 c0 -0.32 0.18 -0.5 0.5 -0.5 l2.2 0 c0.32 0 0.5 0.18 0.5 0.5 l0 4.76 l4 0 l0 -4.76 c0 -0.32 0.18 -0.5 0.5 -0.5 l2.2 0 z M19 20.28 c-2.88 0 -5.2 -1.6 -5.2 -4.6 l0 -9.18 c0 -0.32 0.18 -0.5 0.5 -0.5 l2.2 0 c0.32 0 0.5 0.18 0.5 0.5 l0 8.9 c0 1.06 0.5 1.76 2 1.76 s2 -0.7 2 -1.76 l0 -8.9 c0 -0.32 0.18 -0.5 0.5 -0.5 l2.2 0 c0.32 0 0.5 0.18 0.5 0.5 l0 9.18 c0 3 -2.32 4.6 -5.2 4.6 z M39.900000000000006 6 c0.32 0 0.5 0.18 0.5 0.5 l0 13 c0 0.32 -0.18 0.5 -0.5 0.5 l-2.2 0 c-0.32 0 -0.5 -0.18 -0.5 -0.5 l0 -8.0828 l-2.54 6.0228 c-0.1 0.26 -0.3 0.38 -0.58 0.38 l-1.36 0 c-0.28 0 -0.48 -0.12 -0.58 -0.38 l-2.54 -6.0228 l0 8.0828 c0 0.32 -0.18 0.5 -0.5 0.5 l-2.2 0 c-0.32 0 -0.5 -0.18 -0.5 -0.5 l0 -13 c0 -0.32 0.18 -0.5 0.5 -0.5 l2.2 0 l0.48 0 c0.28 0 0.48 0.12 0.58 0.38 l3.24 7.7 l3.24 -7.7 c0.1 -0.26 0.3 -0.38 0.58 -0.38 l1.62 0 l1.06 0 z M54.620000000000005 19.44 c0.12 0.36 -0.06002 0.56 -0.42002 0.56 l-2.46 0 c-0.28 0 -0.48 -0.12 -0.56 -0.42 l-0.5262 -1.78 l-4.9076 0 l-0.5262 1.78 c-0.08 0.3 -0.28 0.42 -0.56 0.42 l-2.46 0 c-0.36 0 -0.54 -0.2 -0.42 -0.56 l4.24 -13.02 c0.08 -0.28 0.3 -0.42 0.58 -0.42 l3.2 0 c0.28 0 0.5 0.14 0.58 0.42 z M46.6332 14.8 l3.1336 0 l-1.5668 -5.3 z M63.400000000000006 6.5 c0 -0.32 0.18 -0.5 0.5 -0.5 l2.2 0 c0.32 0 0.5 0.18 0.5 0.5 l0 13 c0 0.32 -0.18 0.5 -0.5 0.5 l-1.5 0 c-0.26 0 -0.48 -0.1 -0.62 -0.32 l-4.78 -7.48 l0 7.3 c0 0.32 -0.18 0.5 -0.5 0.5 l-2.2 0 c-0.32 0 -0.5 -0.18 -0.5 -0.5 l0 -13 c0 -0.32 0.18 -0.5 0.5 -0.5 l1.5 0 c0.26 0 0.48 0.1 0.62 0.32 l4.78 7.48 l0 -7.3 z M69.00000000000001 6.5 c0 -0.32 0.18 -0.5 0.5 -0.5 l2.2 0 c0.32 0 0.5 0.18 0.5 0.5 l0 13 c0 0.32 -0.18 0.5 -0.5 0.5 l-2.2 0 c-0.32 0 -0.5 -0.18 -0.5 -0.5 l0 -13 z M80.60000000000001 6 c3.86 0 6.8 3.04 6.8 7 s-2.94 7 -6.8 7 l-5 0 l-0.5 0 c-0.32 0 -0.5 -0.18 -0.5 -0.5 l0 -13 c0 -0.32 0.18 -0.5 0.5 -0.5 l2.7 0 l2.8 0 z M80.60000000000001 16.92 c2.2 0 3.72 -1.52 3.72 -3.92 s-1.52 -3.92 -3.72 -3.92 l-2.8 0 l0 7.84 l2.8 0 z M101.02 19.44 c0.12 0.36 -0.06002 0.56 -0.42002 0.56 l-2.46 0 c-0.28 0 -0.48 -0.12 -0.56 -0.42 l-0.5262 -1.78 l-4.9076 0 l-0.5262 1.78 c-0.08 0.3 -0.28 0.42 -0.56 0.42 l-2.46 0 c-0.36 0 -0.54 -0.2 -0.42 -0.56 l4.24 -13.02 c0.08 -0.28 0.3 -0.42 0.58 -0.42 l3.2 0 c0.28 0 0.5 0.14 0.58 0.42 z M93.0332 14.8 l3.1336 0 l-1.5668 -5.3 z M108.4 6 c3.86 0 6.8 3.04 6.8 7 s-2.94 7 -6.8 7 l-5 0 l-0.5 0 c-0.32 0 -0.5 -0.18 -0.5 -0.5 l0 -13 c0 -0.32 0.18 -0.5 0.5 -0.5 l2.7 0 l2.8 0 z M108.4 16.92 c2.2 0 3.72 -1.52 3.72 -3.92 s-1.52 -3.92 -3.72 -3.92 l-2.8 0 l0 7.84 l2.8 0 z M128 6 c3.86 0 6.8 3.04 6.8 7 s-2.94 7 -6.8 7 l-5 0 l-0.5 0 c-0.32 0 -0.5 -0.18 -0.5 -0.5 l0 -13 c0 -0.32 0.18 -0.5 0.5 -0.5 l2.7 0 l2.8 0 z M128 16.92 c2.2 0 3.72 -1.52 3.72 -3.92 s-1.52 -3.92 -3.72 -3.92 l-2.8 0 l0 7.84 l2.8 0 z M136.6 6.5 c0 -0.32 0.18 -0.5 0.5 -0.5 l2.2 0 c0.32 0 0.5 0.18 0.5 0.5 l0 13 c0 0.32 -0.18 0.5 -0.5 0.5 l-2.2 0 c-0.32 0 -0.5 -0.18 -0.5 -0.5 l0 -13 z M155.24 12.34 c0.32 0 0.49978 0.18 0.49978 0.5 l0 2.3 l0 4.36 c0 0.32 -0.18 0.5 -0.5 0.5 l-2 0 c-0.32 0 -0.5 -0.18 -0.5 -0.5 l0 -1.1344 c-0.9438 1.2558 -2.3972 1.9144 -4.26 1.9144 c-3.9 0 -6.88 -3.16 -6.88 -7.28 s3.06 -7.28 7.28 -7.28 c3.18 0 5.88 1.96 6.7 4.52 c0.12 0.34 -0.06 0.56 -0.42 0.56 l-2.36 0 c-0.28 0 -0.44 -0.12 -0.58 -0.36 c-0.58 -0.9 -1.86 -1.6 -3.34 -1.6 c-2.48 0 -4.08 1.66 -4.08 4.16 c0 2.7 1.72 4.36 4.08 4.36 c1.503 0 3.006 -0.6274 3.5742 -2.22 l-3.014 0 c-0.32 0 -0.5 -0.18 -0.5 -0.5 l0 -1.8 c0 -0.32 0.18 -0.5 0.5 -0.5 l5.8 0 z M157.83999999999997 6.5 c0 -0.32 0.18 -0.5 0.5 -0.5 l2.2 0 c0.32 0 0.5 0.18 0.5 0.5 l0 13 c0 0.32 -0.18 0.5 -0.5 0.5 l-2.2 0 c-0.32 0 -0.5 -0.18 -0.5 -0.5 l0 -13 z M171.54 6 c0.32 0 0.5 0.18 0.5 0.5 l0 2.08 c0 0.32 -0.18 0.5 -0.5 0.5 l-2.7 0 l0 10.42 c0 0.32 -0.18 0.5 -0.5 0.5 l-2.2 0 c-0.32 0 -0.5 -0.18 -0.5 -0.5 l0 -10.42 l-2.7 0 c-0.32 0 -0.5 -0.18 -0.5 -0.5 l0 -2.08 c0 -0.32 0.18 -0.5 0.5 -0.5 l5.9 0 l2.7 0 z M185.26 19.44 c0.12 0.36 -0.06002 0.56 -0.42002 0.56 l-2.46 0 c-0.28 0 -0.48 -0.12 -0.56 -0.42 l-0.5262 -1.78 l-4.9076 0 l-0.5262 1.78 c-0.08 0.3 -0.28 0.42 -0.56 0.42 l-2.46 0 c-0.36 0 -0.54 -0.2 -0.42 -0.56 l4.24 -13.02 c0.08 -0.28 0.3 -0.42 0.58 -0.42 l3.2 0 c0.28 0 0.5 0.14 0.58 0.42 z M177.27319999999997 14.8 l3.1336 0 l-1.5668 -5.3 z M194.13999999999996 16.92 c0.32 0 0.5 0.18 0.5 0.5 l0 2.08 c0 0.32 -0.18 0.5 -0.5 0.5 l-5.9 0 l-1.1 0 c-0.32 0 -0.5 -0.18 -0.5 -0.5 l0 -13 c0 -0.32 0.18 -0.5 0.5 -0.5 l2.2 0 c0.32 0 0.5 0.18 0.5 0.5 l0 10.42 l4.3 0 z"/></g>
			</g>
		</svg>
	