<svg xmlns="http://www.w3.org/2000/svg" viewBox="0 0 512 512"><defs><style>.cls-2{stroke-width:0;fill:#62e595}</style></defs><path class="cls-2" d="M414.22 239.03c9.62-4.59 13.7-16.1 9.11-25.72-4.59-9.62-16.1-13.7-25.72-9.11-9.62 4.59-13.7 16.1-9.11 25.72 4.59 9.62 16.1 13.7 25.72 9.11M341.73 143.16c9.62-4.59 13.7-16.1 9.11-25.72-4.59-9.62-16.1-13.7-25.72-9.11-9.62 4.59-13.7 16.1-9.11 25.72 4.59 9.62 16.1 13.7 25.72 9.11M247.26 243.71c9.62-4.59 13.7-16.1 9.11-25.72-4.59-9.62-16.1-13.7-25.72-9.11-9.62 4.59-13.7 16.1-9.11 25.72 4.59 9.62 16.1 13.7 25.72 9.11M122 295.69c9.62-4.59 13.7-16.1 9.11-25.72-4.59-9.62-16.1-13.7-25.72-9.11-9.62 4.59-13.7 16.1-9.11 25.72 4.59 9.62 16.1 13.7 25.72 9.11M212.57 365.63c9.62-4.59 13.7-16.1 9.11-25.72-4.59-9.62-16.1-13.7-25.72-9.11-9.62 4.59-13.7 16.1-9.11 25.72 4.59 9.62 16.1 13.7 25.72 9.11M319.91 335.79c9.62-4.59 13.7-16.1 9.11-25.72-4.59-9.62-16.1-13.7-25.72-9.11-9.62 4.59-13.7 16.1-9.11 25.72 4.59 9.62 16.1 13.7 25.72 9.11"/><path class="cls-2" d="M150.37 375.65c-1.78.51-3.67.74-5.63.65-9.64-.45-17.09-8.62-16.65-18.26 2.27-48.97 30.06-79.74 80.4-88.97 31.5-5.78 53.14-16.99 64.32-33.33 9.45-13.81 12.01-32.43 7.61-55.33-1.82-9.48 4.39-18.65 13.87-20.46 9.48-1.82 18.64 4.39 20.46 13.87 6.22 32.39 1.81 59.86-13.09 81.65-16.63 24.31-45.85 40.46-86.86 47.98-34.31 6.29-50.28 23.63-51.79 56.21-.36 7.69-5.63 13.98-12.64 15.99M69.51 358.04c-7.26 2.08-15.32-.74-19.57-7.45-17.66-27.86-23.63-55.03-17.75-80.76 6.56-28.72 27.84-54.45 63.23-76.47 29.61-18.43 38.12-40.41 27.59-71.28-3.12-9.13 1.76-19.07 10.89-22.18 9.15-3.1 19.07 1.76 22.18 10.89 15.84 46.4 1.25 85.21-42.2 112.24-27.19 16.92-43.22 35.29-47.63 54.58-3.73 16.32.71 34.57 13.2 54.27 5.17 8.15 2.75 18.95-5.41 24.11-1.45.92-2.98 1.59-4.54 2.04M395.28 314.46c-8.72 2.5-18.03-2.13-21.2-10.79-3.32-9.06 1.33-19.1 10.39-22.42 30.07-11.03 49.5-25.75 57.74-43.74 6.97-15.21 6.34-34-1.87-55.82-3.4-9.03 1.17-19.11 10.2-22.51 9.05-3.41 19.11 1.17 22.51 10.2 11.61 30.87 11.93 58.69.93 82.69-12.27 26.78-38.34 47.64-77.48 61.99-.4.15-.81.28-1.22.4"/><path class="cls-2" d="M187.03 257.25c-.75.21-1.51.37-2.31.47-8.25 1.03-15.77-4.83-16.8-13.08-5.22-41.9 13.89-72.07 55.27-87.25 7.8-2.86 16.45 1.14 19.32 8.95 2.86 7.8-1.14 16.45-8.95 19.31-28.21 10.35-39.24 27.39-35.77 55.27.93 7.46-3.77 14.32-10.77 16.33M254.98 131.24c-25.06 7.19-50.37.32-74.46-20.52-6.29-5.44-6.98-14.94-1.54-21.23 5.44-6.29 14.94-6.98 21.23-1.54 22.72 19.65 42.98 21.04 65.68 4.49 6.71-4.9 16.13-3.42 21.03 3.3 4.9 6.72 3.42 16.13-3.29 21.03-9.46 6.9-19.04 11.72-28.65 14.48M220.44 423.86c-8.52 2.44-17.94 3.74-28.24 3.85-8.31.09-15.13-6.57-15.22-14.88-.1-8.31 6.57-15.13 14.88-15.22 30.04-.34 46.13-12.72 52.17-40.16 1.79-8.12 9.81-13.25 17.93-11.47 8.12 1.79 13.25 9.81 11.47 17.93-6.95 31.6-25.07 51.94-52.98 59.94M363.35 245.23c-7.71 2.21-15.86-2.03-18.42-9.72-6.68-20.06-6.25-36.55 1.29-49.01 6.81-11.25 18.67-18.31 35.24-21 8.2-1.33 15.94 4.24 17.27 12.45 1.33 8.21-4.24 15.94-12.45 17.27-5.13.83-11.78 2.7-14.3 6.87-2.68 4.43-2.15 12.93 1.51 23.92 2.63 7.89-1.64 16.41-9.53 19.03-.2.07-.41.13-.62.19"/><path style="stroke-width:0;fill:none" d="M0 0h512v512H0z"/></svg>